<?xml version="1.0"?>
<!-- Generated by SVGo and Plotinum VG -->
<svg width="440pt" height="220pt" viewBox="0 0 440 220"
	xmlns="http://www.w3.org/2000/svg"
	xmlns:xlink="http://www.w3.org/1999/xlink">
<g transform="scale(1, -1) translate(0, -220)">
<path d="M0,0L440,0L440,220L0,220Z" style="fill:#FFFFFF" />
<text x="174.02" y="-210.61" transform="scale(1, -1)"
	style="font-family:Liberation Serif;font-variant:normal;font-weight:normal;font-style:normal;font-size:12px">BenchmarkDecode</text>
<text x="230.38" y="-3.9023" transform="scale(1, -1)"
	style="font-family:Liberation Serif;font-variant:normal;font-weight:normal;font-style:normal;font-size:12px">commit</text>
<text x="57.135" y="-16.541" transform="scale(1, -1)"
	style="font-family:Liberation Serif;font-variant:normal;font-weight:normal;font-style:normal;font-size:10px">7cd9055</text>
<text x="145.15" y="-16.541" transform="scale(1, -1)"
	style="font-family:Liberation Serif;font-variant:normal;font-weight:normal;font-style:normal;font-size:10px">3ab3ace</text>
<text x="232.89" y="-16.541" transform="scale(1, -1)"
	style="font-family:Liberation Serif;font-variant:normal;font-weight:normal;font-style:normal;font-size:10px">92ae1af</text>
<text x="319.5" y="-16.541" transform="scale(1, -1)"
	style="font-family:Liberation Serif;font-variant:normal;font-weight:normal;font-style:normal;font-size:10px">920af9b</text>
<text x="406.12" y="-16.541" transform="scale(1, -1)"
	style="font-family:Liberation Serif;font-variant:normal;font-weight:normal;font-style:normal;font-size:10px">a1b93a0</text>
<g transform="rotate(90)">
<text x="106.33" y="9.3867" transform="scale(1, -1)"
	style="font-family:Liberation Serif;font-variant:normal;font-weight:normal;font-style:normal;font-size:12px">ns/op</text>
</g>
<text x="15.885" y="-60.095" transform="scale(1, -1)"
	style="font-family:Liberation Serif;font-variant:normal;font-weight:normal;font-style:normal;font-size:10px">145000</text>
<text x="15.885" y="-122.5" transform="scale(1, -1)"
	style="font-family:Liberation Serif;font-variant:normal;font-weight:normal;font-style:normal;font-size:10px">155000</text>
<text x="15.885" y="-184.9" transform="scale(1, -1)"
	style="font-family:Liberation Serif;font-variant:normal;font-weight:normal;font-style:normal;font-size:10px">165000</text>
<path d="M48.385,62.38L56.385,62.38" style="fill:none;stroke:#000000;stroke-width:0.5" />
<path d="M48.385,124.78L56.385,124.78" style="fill:none;stroke:#000000;stroke-width:0.5" />
<path d="M48.385,187.19L56.385,187.19" style="fill:none;stroke:#000000;stroke-width:0.5" />
<path d="M52.385,93.581L56.385,93.581" style="fill:none;stroke:#000000;stroke-width:0.5" />
<path d="M52.385,155.98L56.385,155.98" style="fill:none;stroke:#000000;stroke-width:0.5" />
<path d="M56.385,31.959L56.385,206.71" style="fill:none;stroke:#000000;stroke-width:0.5" />
<path d="M74.354,119.32L161.53,119.32L248.71,200.82L335.88,206.71L423.06,31.959" style="fill:none;stroke:#F15A60" />
<path d="M420,199.02L440,199.02" style="fill:none;stroke:#F15A60" />
</g>
</svg>
