<?xml version="1.0"?>
<!-- Generated by SVGo and Plotinum VG -->
<svg width="560pt" height="280pt" viewBox="0 0 560 280"
	xmlns="http://www.w3.org/2000/svg"
	xmlns:xlink="http://www.w3.org/1999/xlink">
<g transform="scale(1, -1) translate(0, -280)">
<path d="M0,0L560,0L560,280L0,280Z" style="fill:#FFFFFF" />
<text x="206.64" y="-270.61" transform="scale(1, -1)"
	style="font-family:Liberation Serif;font-variant:normal;font-weight:normal;font-style:normal;font-size:12px">BenchmarkDecode/text=twain</text>
<text x="291.07" y="-3.9023" transform="scale(1, -1)"
	style="font-family:Liberation Serif;font-variant:normal;font-weight:normal;font-style:normal;font-size:12px">level</text>
<text x="42.135" y="-16.541" transform="scale(1, -1)"
	style="font-family:Liberation Serif;font-variant:normal;font-weight:normal;font-style:normal;font-size:10px">speed</text>
<text x="288.85" y="-16.541" transform="scale(1, -1)"
	style="font-family:Liberation Serif;font-variant:normal;font-weight:normal;font-style:normal;font-size:10px">default</text>
<text x="543.89" y="-16.541" transform="scale(1, -1)"
	style="font-family:Liberation Serif;font-variant:normal;font-weight:normal;font-style:normal;font-size:10px">best</text>
<g transform="rotate(90)">
<text x="127.67" y="9.3867" transform="scale(1, -1)"
	style="font-family:Liberation Serif;font-variant:normal;font-weight:normal;font-style:normal;font-size:12px">allocs/op</text>
</g>
<text x="20.885" y="-58.163" transform="scale(1, -1)"
	style="font-family:Liberation Serif;font-variant:normal;font-weight:normal;font-style:normal;font-size:10px">40</text>
<text x="15.885" y="-149.33" transform="scale(1, -1)"
	style="font-family:Liberation Serif;font-variant:normal;font-weight:normal;font-style:normal;font-size:10px">120</text>
<text x="15.885" y="-240.49" transform="scale(1, -1)"
	style="font-family:Liberation Serif;font-variant:normal;font-weight:normal;font-style:normal;font-size:10px">200</text>
<path d="M33.385,60.448L41.385,60.448" style="fill:none;stroke:#000000;stroke-width:0.5" />
<path d="M33.385,151.61L41.385,151.61" style="fill:none;stroke:#000000;stroke-width:0.5" />
<path d="M33.385,242.78L41.385,242.78" style="fill:none;stroke:#000000;stroke-width:0.5" />
<path d="M37.385,106.03L41.385,106.03" style="fill:none;stroke:#000000;stroke-width:0.5" />
<path d="M37.385,197.2L41.385,197.2" style="fill:none;stroke:#000000;stroke-width:0.5" />
<path d="M41.385,31.959L41.385,266.71" style="fill:none;stroke:#000000;stroke-width:0.5" />
<path d="M53.519,31.959L302.73,31.959L551.95,31.959" style="fill:none;stroke:#F15A60" />
<path d="M53.519,50.192L302.73,46.773L551.95,43.355" style="fill:none;stroke:#7AC36A" />
<path d="M53.519,266.71L302.73,210.87L551.95,212.01" style="fill:none;stroke:#5A9BD4" />
<path d="M540,259.02L560,259.02" style="fill:none;stroke:#F15A60" />
<text x="519.67" y="-256.54" transform="scale(1, -1)"
	style="font-family:Liberation Serif;font-variant:normal;font-weight:normal;font-style:normal;font-size:12px">1e4</text>
<path d="M540,248.84L560,248.84" style="fill:none;stroke:#7AC36A" />
<text x="519.67" y="-246.35" transform="scale(1, -1)"
	style="font-family:Liberation Serif;font-variant:normal;font-weight:normal;font-style:normal;font-size:12px">1e5</text>
<path d="M540,238.66L560,238.66" style="fill:none;stroke:#5A9BD4" />
<text x="519.67" y="-236.17" transform="scale(1, -1)"
	style="font-family:Liberation Serif;font-variant:normal;font-weight:normal;font-style:normal;font-size:12px">1e6</text>
</g>
</svg>
