<?xml version="1.0"?>
<!-- Generated by SVGo and Plotinum VG -->
<svg width="380pt" height="190pt" viewBox="0 0 380 190"
	xmlns="http://www.w3.org/2000/svg"
	xmlns:xlink="http://www.w3.org/1999/xlink">
<g transform="scale(1, -1) translate(0, -190)">
<path d="M0,0L380,0L380,190L0,190Z" style="fill:#FFFFFF" />
<text x="93.602" y="-180.61" transform="scale(1, -1)"
	style="font-family:Liberation Serif;font-variant:normal;font-weight:normal;font-style:normal;font-size:12px">BenchmarkDecode/size=1e6/text=twain</text>
<text x="201.07" y="-3.9023" transform="scale(1, -1)"
	style="font-family:Liberation Serif;font-variant:normal;font-weight:normal;font-style:normal;font-size:12px">level</text>
<text x="42.135" y="-16.541" transform="scale(1, -1)"
	style="font-family:Liberation Serif;font-variant:normal;font-weight:normal;font-style:normal;font-size:10px">speed</text>
<text x="198.85" y="-16.541" transform="scale(1, -1)"
	style="font-family:Liberation Serif;font-variant:normal;font-weight:normal;font-style:normal;font-size:10px">default</text>
<text x="363.89" y="-16.541" transform="scale(1, -1)"
	style="font-family:Liberation Serif;font-variant:normal;font-weight:normal;font-style:normal;font-size:10px">best</text>
<g transform="rotate(90)">
<text x="81.354" y="9.3867" transform="scale(1, -1)"
	style="font-family:Liberation Serif;font-variant:normal;font-weight:normal;font-style:normal;font-size:12px">allocs/op</text>
</g>
<text x="15.885" y="-52.876" transform="scale(1, -1)"
	style="font-family:Liberation Serif;font-variant:normal;font-weight:normal;font-style:normal;font-size:10px">180</text>
<text x="15.885" y="-110.88" transform="scale(1, -1)"
	style="font-family:Liberation Serif;font-variant:normal;font-weight:normal;font-style:normal;font-size:10px">200</text>
<text x="15.885" y="-168.89" transform="scale(1, -1)"
	style="font-family:Liberation Serif;font-variant:normal;font-weight:normal;font-style:normal;font-size:10px">220</text>
<path d="M33.385,55.161L41.385,55.161" style="fill:none;stroke:#000000;stroke-width:0.5" />
<path d="M33.385,113.17L41.385,113.17" style="fill:none;stroke:#000000;stroke-width:0.5" />
<path d="M33.385,171.17L41.385,171.17" style="fill:none;stroke:#000000;stroke-width:0.5" />
<path d="M37.385,84.165L41.385,84.165" style="fill:none;stroke:#000000;stroke-width:0.5" />
<path d="M37.385,142.17L41.385,142.17" style="fill:none;stroke:#000000;stroke-width:0.5" />
<path d="M41.385,31.959L41.385,174.07" style="fill:none;stroke:#000000;stroke-width:0.5" />
<path d="M53.519,174.07L212.73,31.959L371.95,34.859" style="fill:none;stroke:#F15A60" />
<path d="M360,169.02L380,169.02" style="fill:none;stroke:#F15A60" />
</g>
</svg>
