<?xml version="1.0"?>
<!-- Generated by SVGo and Plotinum VG -->
<svg width="590pt" height="295pt" viewBox="0 0 590 295"
	xmlns="http://www.w3.org/2000/svg"
	xmlns:xlink="http://www.w3.org/1999/xlink">
<g transform="scale(1, -1) translate(0, -295)">
<path d="M0,0L590,0L590,295L0,295Z" style="fill:#FFFFFF" />
<text x="236.01" y="-285.61" transform="scale(1, -1)"
	style="font-family:Liberation Serif;font-variant:normal;font-weight:normal;font-style:normal;font-size:12px">BenchmarkTdigest_Add</text>
<text x="317.63" y="-3.9023" transform="scale(1, -1)"
	style="font-family:Liberation Serif;font-variant:normal;font-weight:normal;font-style:normal;font-size:12px">source</text>
<text x="82.135" y="-16.541" transform="scale(1, -1)"
	style="font-family:Liberation Serif;font-variant:normal;font-weight:normal;font-style:normal;font-size:10px">linear</text>
<text x="204.52" y="-16.541" transform="scale(1, -1)"
	style="font-family:Liberation Serif;font-variant:normal;font-weight:normal;font-style:normal;font-size:10px">rand</text>
<text x="311.91" y="-16.541" transform="scale(1, -1)"
	style="font-family:Liberation Serif;font-variant:normal;font-weight:normal;font-style:normal;font-size:10px">alternating</text>
<text x="439.01" y="-16.541" transform="scale(1, -1)"
	style="font-family:Liberation Serif;font-variant:normal;font-weight:normal;font-style:normal;font-size:10px">normal</text>
<text x="556.12" y="-16.541" transform="scale(1, -1)"
	style="font-family:Liberation Serif;font-variant:normal;font-weight:normal;font-style:normal;font-size:10px">tailspike</text>
<g transform="rotate(90)">
<text x="132.4" y="9.3867" transform="scale(1, -1)"
	style="font-family:Liberation Serif;font-variant:normal;font-weight:normal;font-style:normal;font-size:12px">allocs/op</text>
</g>
<text x="20.885" y="-29.674" transform="scale(1, -1)"
	style="font-family:Liberation Serif;font-variant:normal;font-weight:normal;font-style:normal;font-size:10px">0</text>
<text x="20.885" y="-151.78" transform="scale(1, -1)"
	style="font-family:Liberation Serif;font-variant:normal;font-weight:normal;font-style:normal;font-size:10px">5</text>
<text x="15.885" y="-273.89" transform="scale(1, -1)"
	style="font-family:Liberation Serif;font-variant:normal;font-weight:normal;font-style:normal;font-size:10px">10</text>
<path d="M28.385,31.959L36.385,31.959" style="fill:none;stroke:#000000;stroke-width:0.5" />
<path d="M28.385,154.07L36.385,154.07" style="fill:none;stroke:#000000;stroke-width:0.5" />
<path d="M28.385,276.17L36.385,276.17" style="fill:none;stroke:#000000;stroke-width:0.5" />
<path d="M32.385,56.38L36.385,56.38" style="fill:none;stroke:#000000;stroke-width:0.5" />
<path d="M32.385,80.802L36.385,80.802" style="fill:none;stroke:#000000;stroke-width:0.5" />
<path d="M32.385,105.22L36.385,105.22" style="fill:none;stroke:#000000;stroke-width:0.5" />
<path d="M32.385,129.64L36.385,129.64" style="fill:none;stroke:#000000;stroke-width:0.5" />
<path d="M32.385,178.49L36.385,178.49" style="fill:none;stroke:#000000;stroke-width:0.5" />
<path d="M32.385,202.91L36.385,202.91" style="fill:none;stroke:#000000;stroke-width:0.5" />
<path d="M32.385,227.33L36.385,227.33" style="fill:none;stroke:#000000;stroke-width:0.5" />
<path d="M32.385,251.75L36.385,251.75" style="fill:none;stroke:#000000;stroke-width:0.5" />
<path d="M36.385,31.959L36.385,276.17" style="fill:none;stroke:#000000;stroke-width:0.5" />
<path d="M48.517,31.959L48.517,31.959L78.517,31.959L78.517,31.959Z" style="fill:#F15A60" />
<path d="M168.4,31.959L168.4,31.959L198.4,31.959L198.4,31.959Z" style="fill:#F15A60" />
<path d="M288.29,31.959L288.29,31.959L318.29,31.959L318.29,31.959Z" style="fill:#F15A60" />
<path d="M408.17,31.959L408.17,31.959L438.17,31.959L438.17,31.959Z" style="fill:#F15A60" />
<path d="M528.06,31.959L528.06,31.959L558.06,31.959L558.06,31.959Z" style="fill:#F15A60" />
<path d="M78.517,31.959L78.517,56.38L108.52,56.38L108.52,31.959Z" style="fill:#7AC36A" />
<path d="M198.4,31.959L198.4,56.38L228.4,56.38L228.4,31.959Z" style="fill:#7AC36A" />
<path d="M318.29,31.959L318.29,276.17L348.29,276.17L348.29,31.959Z" style="fill:#7AC36A" />
<path d="M438.17,31.959L438.17,56.38L468.17,56.38L468.17,31.959Z" style="fill:#7AC36A" />
<path d="M558.06,31.959L558.06,56.38L588.06,56.38L588.06,31.959Z" style="fill:#7AC36A" />
<path d="M570,268.93L570,279.12L590,279.12L590,268.93Z" style="fill:#F15A60" />
<text x="547.01" y="-271.54" transform="scale(1, -1)"
	style="font-family:Liberation Serif;font-variant:normal;font-weight:normal;font-style:normal;font-size:12px">caio</text>
<path d="M570,258.75L570,268.93L590,268.93L590,258.75Z" style="fill:#7AC36A" />
<text x="517.68" y="-261.35" transform="scale(1, -1)"
	style="font-family:Liberation Serif;font-variant:normal;font-weight:normal;font-style:normal;font-size:12px">segmentio</text>
</g>
</svg>
