<?xml version="1.0"?>
<!-- Generated by SVGo and Plotinum VG -->
<svg width="470pt" height="235pt" viewBox="0 0 470 235"
	xmlns="http://www.w3.org/2000/svg"
	xmlns:xlink="http://www.w3.org/1999/xlink">
<g transform="scale(1, -1) translate(0, -235)">
<path d="M0,0L470,0L470,235L0,235Z" style="fill:#FFFFFF" />
<text x="165.98" y="-225.61" transform="scale(1, -1)"
	style="font-family:Liberation Serif;font-variant:normal;font-weight:normal;font-style:normal;font-size:12px">BenchmarkDecode/size=1e6</text>
<text x="277.6" y="-3.9023" transform="scale(1, -1)"
	style="font-family:Liberation Serif;font-variant:normal;font-weight:normal;font-style:normal;font-size:12px">level</text>
<text x="112.13" y="-16.541" transform="scale(1, -1)"
	style="font-family:Liberation Serif;font-variant:normal;font-weight:normal;font-style:normal;font-size:10px">speed</text>
<text x="275.38" y="-16.541" transform="scale(1, -1)"
	style="font-family:Liberation Serif;font-variant:normal;font-weight:normal;font-style:normal;font-size:10px">default</text>
<text x="446.95" y="-16.541" transform="scale(1, -1)"
	style="font-family:Liberation Serif;font-variant:normal;font-weight:normal;font-style:normal;font-size:10px">best</text>
<g transform="rotate(90)">
<text x="113.83" y="9.3867" transform="scale(1, -1)"
	style="font-family:Liberation Serif;font-variant:normal;font-weight:normal;font-style:normal;font-size:12px">ns/op</text>
</g>
<text x="50.885" y="-29.674" transform="scale(1, -1)"
	style="font-family:Liberation Serif;font-variant:normal;font-weight:normal;font-style:normal;font-size:10px">0</text>
<text x="20.885" y="-84.358" transform="scale(1, -1)"
	style="font-family:Liberation Serif;font-variant:normal;font-weight:normal;font-style:normal;font-size:10px">4000000</text>
<text x="20.885" y="-139.04" transform="scale(1, -1)"
	style="font-family:Liberation Serif;font-variant:normal;font-weight:normal;font-style:normal;font-size:10px">8000000</text>
<text x="15.885" y="-193.73" transform="scale(1, -1)"
	style="font-family:Liberation Serif;font-variant:normal;font-weight:normal;font-style:normal;font-size:10px">12000000</text>
<path d="M58.385,31.959L66.385,31.959" style="fill:none;stroke:#000000;stroke-width:0.5" />
<path d="M58.385,86.643L66.385,86.643" style="fill:none;stroke:#000000;stroke-width:0.5" />
<path d="M58.385,141.33L66.385,141.33" style="fill:none;stroke:#000000;stroke-width:0.5" />
<path d="M58.385,196.01L66.385,196.01" style="fill:none;stroke:#000000;stroke-width:0.5" />
<path d="M62.385,45.63L66.385,45.63" style="fill:none;stroke:#000000;stroke-width:0.5" />
<path d="M62.385,59.301L66.385,59.301" style="fill:none;stroke:#000000;stroke-width:0.5" />
<path d="M62.385,72.972L66.385,72.972" style="fill:none;stroke:#000000;stroke-width:0.5" />
<path d="M62.385,100.31L66.385,100.31" style="fill:none;stroke:#000000;stroke-width:0.5" />
<path d="M62.385,113.99L66.385,113.99" style="fill:none;stroke:#000000;stroke-width:0.5" />
<path d="M62.385,127.66L66.385,127.66" style="fill:none;stroke:#000000;stroke-width:0.5" />
<path d="M62.385,155L66.385,155" style="fill:none;stroke:#000000;stroke-width:0.5" />
<path d="M62.385,168.67L66.385,168.67" style="fill:none;stroke:#000000;stroke-width:0.5" />
<path d="M62.385,182.34L66.385,182.34" style="fill:none;stroke:#000000;stroke-width:0.5" />
<path d="M62.385,209.68L66.385,209.68" style="fill:none;stroke:#000000;stroke-width:0.5" />
<path d="M66.385,31.959L66.385,221.71" style="fill:none;stroke:#000000;stroke-width:0.5" />
<path d="M78.519,31.959L78.519,221.71L108.52,221.71L108.52,31.959Z" style="fill:#F15A60" />
<path d="M244.26,31.959L244.26,193.4L274.26,193.4L274.26,31.959Z" style="fill:#F15A60" />
<path d="M410,31.959L410,192.46L440,192.46L440,31.959Z" style="fill:#F15A60" />
<path d="M108.52,31.959L108.52,197.77L138.52,197.77L138.52,31.959Z" style="fill:#7AC36A" />
<path d="M274.26,31.959L274.26,170.13L304.26,170.13L304.26,31.959Z" style="fill:#7AC36A" />
<path d="M440,31.959L440,169.22L470,169.22L470,31.959Z" style="fill:#7AC36A" />
<path d="M450,208.93L450,219.12L470,219.12L470,208.93Z" style="fill:#F15A60" />
<text x="420.33" y="-211.54" transform="scale(1, -1)"
	style="font-family:Liberation Serif;font-variant:normal;font-weight:normal;font-style:normal;font-size:12px">digits</text>
<path d="M450,198.75L450,208.93L470,208.93L470,198.75Z" style="fill:#7AC36A" />
<text x="420.34" y="-201.35" transform="scale(1, -1)"
	style="font-family:Liberation Serif;font-variant:normal;font-weight:normal;font-style:normal;font-size:12px">twain</text>
</g>
</svg>
