<?xml version="1.0"?>
<!-- Generated by SVGo and Plotinum VG -->
<svg width="470pt" height="235pt" viewBox="0 0 470 235"
	xmlns="http://www.w3.org/2000/svg"
	xmlns:xlink="http://www.w3.org/1999/xlink">
<g transform="scale(1, -1) translate(0, -235)">
<path d="M0,0L470,0L470,235L0,235Z" style="fill:#FFFFFF" />
<text x="165.98" y="-225.61" transform="scale(1, -1)"
	style="font-family:Liberation Serif;font-variant:normal;font-weight:normal;font-style:normal;font-size:12px">BenchmarkDecode/size=1e6</text>
<text x="265.1" y="-3.9023" transform="scale(1, -1)"
	style="font-family:Liberation Serif;font-variant:normal;font-weight:normal;font-style:normal;font-size:12px">level</text>
<text x="87.135" y="-16.541" transform="scale(1, -1)"
	style="font-family:Liberation Serif;font-variant:normal;font-weight:normal;font-style:normal;font-size:10px">speed</text>
<text x="262.88" y="-16.541" transform="scale(1, -1)"
	style="font-family:Liberation Serif;font-variant:normal;font-weight:normal;font-style:normal;font-size:10px">default</text>
<text x="446.95" y="-16.541" transform="scale(1, -1)"
	style="font-family:Liberation Serif;font-variant:normal;font-weight:normal;font-style:normal;font-size:10px">best</text>
<g transform="rotate(90)">
<text x="105.17" y="9.3867" transform="scale(1, -1)"
	style="font-family:Liberation Serif;font-variant:normal;font-weight:normal;font-style:normal;font-size:12px">allocs/op</text>
</g>
<text x="25.885" y="-29.674" transform="scale(1, -1)"
	style="font-family:Liberation Serif;font-variant:normal;font-weight:normal;font-style:normal;font-size:10px">0</text>
<text x="15.885" y="-115.53" transform="scale(1, -1)"
	style="font-family:Liberation Serif;font-variant:normal;font-weight:normal;font-style:normal;font-size:10px">100</text>
<text x="15.885" y="-201.4" transform="scale(1, -1)"
	style="font-family:Liberation Serif;font-variant:normal;font-weight:normal;font-style:normal;font-size:10px">200</text>
<path d="M33.385,31.959L41.385,31.959" style="fill:none;stroke:#000000;stroke-width:0.5" />
<path d="M33.385,117.82L41.385,117.82" style="fill:none;stroke:#000000;stroke-width:0.5" />
<path d="M33.385,203.68L41.385,203.68" style="fill:none;stroke:#000000;stroke-width:0.5" />
<path d="M37.385,49.131L41.385,49.131" style="fill:none;stroke:#000000;stroke-width:0.5" />
<path d="M37.385,66.303L41.385,66.303" style="fill:none;stroke:#000000;stroke-width:0.5" />
<path d="M37.385,83.475L41.385,83.475" style="fill:none;stroke:#000000;stroke-width:0.5" />
<path d="M37.385,100.65L41.385,100.65" style="fill:none;stroke:#000000;stroke-width:0.5" />
<path d="M37.385,134.99L41.385,134.99" style="fill:none;stroke:#000000;stroke-width:0.5" />
<path d="M37.385,152.16L41.385,152.16" style="fill:none;stroke:#000000;stroke-width:0.5" />
<path d="M37.385,169.34L41.385,169.34" style="fill:none;stroke:#000000;stroke-width:0.5" />
<path d="M37.385,186.51L41.385,186.51" style="fill:none;stroke:#000000;stroke-width:0.5" />
<path d="M37.385,220.85L41.385,220.85" style="fill:none;stroke:#000000;stroke-width:0.5" />
<path d="M41.385,31.959L41.385,221.71" style="fill:none;stroke:#000000;stroke-width:0.5" />
<path d="M53.519,31.959L53.519,112.67L83.519,112.67L83.519,31.959Z" style="fill:#F15A60" />
<path d="M231.76,31.959L231.76,100.65L261.76,100.65L261.76,31.959Z" style="fill:#F15A60" />
<path d="M410,31.959L410,100.65L440,100.65L440,31.959Z" style="fill:#F15A60" />
<path d="M83.519,31.959L83.519,221.71L113.52,221.71L113.52,31.959Z" style="fill:#7AC36A" />
<path d="M261.76,31.959L261.76,179.64L291.76,179.64L291.76,31.959Z" style="fill:#7AC36A" />
<path d="M440,31.959L440,180.5L470,180.5L470,31.959Z" style="fill:#7AC36A" />
<path d="M450,208.93L450,219.12L470,219.12L470,208.93Z" style="fill:#F15A60" />
<text x="420.33" y="-211.54" transform="scale(1, -1)"
	style="font-family:Liberation Serif;font-variant:normal;font-weight:normal;font-style:normal;font-size:12px">digits</text>
<path d="M450,198.75L450,208.93L470,208.93L470,198.75Z" style="fill:#7AC36A" />
<text x="420.34" y="-201.35" transform="scale(1, -1)"
	style="font-family:Liberation Serif;font-variant:normal;font-weight:normal;font-style:normal;font-size:12px">twain</text>
</g>
</svg>
