<?xml version="1.0"?>
<!-- Generated by SVGo and Plotinum VG -->
<svg width="590pt" height="295pt" viewBox="0 0 590 295"
	xmlns="http://www.w3.org/2000/svg"
	xmlns:xlink="http://www.w3.org/1999/xlink">
<g transform="scale(1, -1) translate(0, -295)">
<path d="M0,0L590,0L590,295L0,295Z" style="fill:#FFFFFF" />
<text x="236.01" y="-285.61" transform="scale(1, -1)"
	style="font-family:Liberation Serif;font-variant:normal;font-weight:normal;font-style:normal;font-size:12px">BenchmarkTdigest_Add</text>
<text x="328.88" y="-3.9023" transform="scale(1, -1)"
	style="font-family:Liberation Serif;font-variant:normal;font-weight:normal;font-style:normal;font-size:12px">source</text>
<text x="104.63" y="-16.541" transform="scale(1, -1)"
	style="font-family:Liberation Serif;font-variant:normal;font-weight:normal;font-style:normal;font-size:10px">linear</text>
<text x="221.39" y="-16.541" transform="scale(1, -1)"
	style="font-family:Liberation Serif;font-variant:normal;font-weight:normal;font-style:normal;font-size:10px">rand</text>
<text x="323.16" y="-16.541" transform="scale(1, -1)"
	style="font-family:Liberation Serif;font-variant:normal;font-weight:normal;font-style:normal;font-size:10px">alternating</text>
<text x="444.64" y="-16.541" transform="scale(1, -1)"
	style="font-family:Liberation Serif;font-variant:normal;font-weight:normal;font-style:normal;font-size:10px">normal</text>
<text x="556.12" y="-16.541" transform="scale(1, -1)"
	style="font-family:Liberation Serif;font-variant:normal;font-weight:normal;font-style:normal;font-size:10px">tailspike</text>
<g transform="rotate(90)">
<text x="143.83" y="9.3867" transform="scale(1, -1)"
	style="font-family:Liberation Serif;font-variant:normal;font-weight:normal;font-style:normal;font-size:12px">ns/op</text>
</g>
<text x="30.885" y="-29.674" transform="scale(1, -1)"
	style="font-family:Liberation Serif;font-variant:normal;font-weight:normal;font-style:normal;font-size:10px">0.00</text>
<text x="15.885" y="-139.72" transform="scale(1, -1)"
	style="font-family:Liberation Serif;font-variant:normal;font-weight:normal;font-style:normal;font-size:10px">2500.00</text>
<text x="15.885" y="-249.76" transform="scale(1, -1)"
	style="font-family:Liberation Serif;font-variant:normal;font-weight:normal;font-style:normal;font-size:10px">5000.00</text>
<path d="M50.885,31.959L58.885,31.959" style="fill:none;stroke:#000000;stroke-width:0.5" />
<path d="M50.885,142L58.885,142" style="fill:none;stroke:#000000;stroke-width:0.5" />
<path d="M50.885,252.04L58.885,252.04" style="fill:none;stroke:#000000;stroke-width:0.5" />
<path d="M54.885,53.967L58.885,53.967" style="fill:none;stroke:#000000;stroke-width:0.5" />
<path d="M54.885,75.976L58.885,75.976" style="fill:none;stroke:#000000;stroke-width:0.5" />
<path d="M54.885,97.984L58.885,97.984" style="fill:none;stroke:#000000;stroke-width:0.5" />
<path d="M54.885,119.99L58.885,119.99" style="fill:none;stroke:#000000;stroke-width:0.5" />
<path d="M54.885,164.01L58.885,164.01" style="fill:none;stroke:#000000;stroke-width:0.5" />
<path d="M54.885,186.02L58.885,186.02" style="fill:none;stroke:#000000;stroke-width:0.5" />
<path d="M54.885,208.03L58.885,208.03" style="fill:none;stroke:#000000;stroke-width:0.5" />
<path d="M54.885,230.04L58.885,230.04" style="fill:none;stroke:#000000;stroke-width:0.5" />
<path d="M54.885,274.05L58.885,274.05" style="fill:none;stroke:#000000;stroke-width:0.5" />
<path d="M58.885,31.959L58.885,281.71" style="fill:none;stroke:#000000;stroke-width:0.5" />
<path d="M71.017,31.959L71.017,72.983L101.02,72.983L101.02,31.959Z" style="fill:#F15A60" />
<path d="M185.28,31.959L185.28,46.353L215.28,46.353L215.28,31.959Z" style="fill:#F15A60" />
<path d="M299.54,31.959L299.54,109.96L329.54,109.96L329.54,31.959Z" style="fill:#F15A60" />
<path d="M413.8,31.959L413.8,46.044L443.8,46.044L443.8,31.959Z" style="fill:#F15A60" />
<path d="M528.06,31.959L528.06,46.176L558.06,46.176L558.06,31.959Z" style="fill:#F15A60" />
<path d="M101.02,31.959L101.02,281.71L131.02,281.71L131.02,31.959Z" style="fill:#7AC36A" />
<path d="M215.28,31.959L215.28,68.361L245.28,68.361L245.28,31.959Z" style="fill:#7AC36A" />
<path d="M329.54,31.959L329.54,166.34L359.54,166.34L359.54,31.959Z" style="fill:#7AC36A" />
<path d="M443.8,31.959L443.8,70.034L473.8,70.034L473.8,31.959Z" style="fill:#7AC36A" />
<path d="M558.06,31.959L558.06,67.745L588.06,67.745L588.06,31.959Z" style="fill:#7AC36A" />
<path d="M570,268.93L570,279.12L590,279.12L590,268.93Z" style="fill:#F15A60" />
<text x="547.01" y="-271.54" transform="scale(1, -1)"
	style="font-family:Liberation Serif;font-variant:normal;font-weight:normal;font-style:normal;font-size:12px">caio</text>
<path d="M570,258.75L570,268.93L590,268.93L590,258.75Z" style="fill:#7AC36A" />
<text x="517.68" y="-261.35" transform="scale(1, -1)"
	style="font-family:Liberation Serif;font-variant:normal;font-weight:normal;font-style:normal;font-size:12px">segmentio</text>
</g>
</svg>
