<?xml version="1.0"?>
<!-- Generated by SVGo and Plotinum VG -->
<svg width="590pt" height="295pt" viewBox="0 0 590 295"
	xmlns="http://www.w3.org/2000/svg"
	xmlns:xlink="http://www.w3.org/1999/xlink">
<g transform="scale(1, -1) translate(0, -295)">
<path d="M0,0L590,0L590,295L0,295Z" style="fill:#FFFFFF" />
<text x="162.76" y="-285.61" transform="scale(1, -1)"
	style="font-family:Liberation Serif;font-variant:normal;font-weight:normal;font-style:normal;font-size:12px">BenchmarkCorrectness/size=1000000/quant=0.999000</text>
<text x="302.67" y="-3.9023" transform="scale(1, -1)"
	style="font-family:Liberation Serif;font-variant:normal;font-weight:normal;font-style:normal;font-size:12px">source</text>
<text x="52.213" y="-16.541" transform="scale(1, -1)"
	style="font-family:Liberation Serif;font-variant:normal;font-weight:normal;font-style:normal;font-size:10px">linear</text>
<text x="182.08" y="-16.541" transform="scale(1, -1)"
	style="font-family:Liberation Serif;font-variant:normal;font-weight:normal;font-style:normal;font-size:10px">rand</text>
<text x="296.95" y="-16.541" transform="scale(1, -1)"
	style="font-family:Liberation Serif;font-variant:normal;font-weight:normal;font-style:normal;font-size:10px">alternating</text>
<text x="431.53" y="-16.541" transform="scale(1, -1)"
	style="font-family:Liberation Serif;font-variant:normal;font-weight:normal;font-style:normal;font-size:10px">normal</text>
<text x="556.12" y="-16.541" transform="scale(1, -1)"
	style="font-family:Liberation Serif;font-variant:normal;font-weight:normal;font-style:normal;font-size:10px">tailspike</text>
<g transform="rotate(90)">
<text x="132.42" y="9.3867" transform="scale(1, -1)"
	style="font-family:Liberation Serif;font-variant:normal;font-weight:normal;font-style:normal;font-size:12px">%correct</text>
</g>
<text x="15.885" y="-29.674" transform="scale(1, -1)"
	style="font-family:Liberation Serif;font-variant:normal;font-weight:normal;font-style:normal;font-size:10px">1e+02</text>
<text x="15.885" y="-151.78" transform="scale(1, -1)"
	style="font-family:Liberation Serif;font-variant:normal;font-weight:normal;font-style:normal;font-size:10px">1e+02</text>
<text x="15.885" y="-273.89" transform="scale(1, -1)"
	style="font-family:Liberation Serif;font-variant:normal;font-weight:normal;font-style:normal;font-size:10px">1e+02</text>
<path d="M43.463,31.959L51.463,31.959" style="fill:none;stroke:#000000;stroke-width:0.5" />
<path d="M43.463,154.07L51.463,154.07" style="fill:none;stroke:#000000;stroke-width:0.5" />
<path d="M43.463,276.17L51.463,276.17" style="fill:none;stroke:#000000;stroke-width:0.5" />
<path d="M47.463,56.38L51.463,56.38" style="fill:none;stroke:#000000;stroke-width:0.5" />
<path d="M47.463,80.802L51.463,80.802" style="fill:none;stroke:#000000;stroke-width:0.5" />
<path d="M47.463,105.22L51.463,105.22" style="fill:none;stroke:#000000;stroke-width:0.5" />
<path d="M47.463,129.64L51.463,129.64" style="fill:none;stroke:#000000;stroke-width:0.5" />
<path d="M47.463,178.49L51.463,178.49" style="fill:none;stroke:#000000;stroke-width:0.5" />
<path d="M47.463,202.91L51.463,202.91" style="fill:none;stroke:#000000;stroke-width:0.5" />
<path d="M47.463,227.33L51.463,227.33" style="fill:none;stroke:#000000;stroke-width:0.5" />
<path d="M47.463,251.75L51.463,251.75" style="fill:none;stroke:#000000;stroke-width:0.5" />
<path d="M51.463,31.959L51.463,276.17" style="fill:none;stroke:#000000;stroke-width:0.5" />
<path d="M63.595,276.17L190.96,276.17L318.33,276.17L445.69,276.17L573.06,276.17" style="fill:none;stroke:#F15A60" />
<path d="M63.595,276.17L190.96,276.17L318.33,276.17L445.69,31.959L573.06,276.17" style="fill:none;stroke:#7AC36A" />
<path d="M570,274.02L590,274.02" style="fill:none;stroke:#F15A60" />
<text x="547.01" y="-271.54" transform="scale(1, -1)"
	style="font-family:Liberation Serif;font-variant:normal;font-weight:normal;font-style:normal;font-size:12px">caio</text>
<path d="M570,263.84L590,263.84" style="fill:none;stroke:#7AC36A" />
<text x="517.68" y="-261.35" transform="scale(1, -1)"
	style="font-family:Liberation Serif;font-variant:normal;font-weight:normal;font-style:normal;font-size:12px">segmentio</text>
</g>
</svg>
