<?xml version="1.0"?>
<!-- Generated by SVGo and Plotinum VG -->
<svg width="470pt" height="235pt" viewBox="0 0 470 235"
	xmlns="http://www.w3.org/2000/svg"
	xmlns:xlink="http://www.w3.org/1999/xlink">
<g transform="scale(1, -1) translate(0, -235)">
<path d="M0,0L470,0L470,235L0,235Z" style="fill:#FFFFFF" />
<text x="162.65" y="-225.61" transform="scale(1, -1)"
	style="font-family:Liberation Serif;font-variant:normal;font-weight:normal;font-style:normal;font-size:12px">BenchmarkDecode/level=best</text>
<text x="265.35" y="-3.9023" transform="scale(1, -1)"
	style="font-family:Liberation Serif;font-variant:normal;font-weight:normal;font-style:normal;font-size:12px">size</text>
<text x="87.135" y="-16.541" transform="scale(1, -1)"
	style="font-family:Liberation Serif;font-variant:normal;font-weight:normal;font-style:normal;font-size:10px">1e4</text>
<text x="267.46" y="-16.541" transform="scale(1, -1)"
	style="font-family:Liberation Serif;font-variant:normal;font-weight:normal;font-style:normal;font-size:10px">1e5</text>
<text x="447.78" y="-16.541" transform="scale(1, -1)"
	style="font-family:Liberation Serif;font-variant:normal;font-weight:normal;font-style:normal;font-size:10px">1e6</text>
<g transform="rotate(90)">
<text x="105.17" y="9.3867" transform="scale(1, -1)"
	style="font-family:Liberation Serif;font-variant:normal;font-weight:normal;font-style:normal;font-size:12px">allocs/op</text>
</g>
<text x="25.885" y="-29.674" transform="scale(1, -1)"
	style="font-family:Liberation Serif;font-variant:normal;font-weight:normal;font-style:normal;font-size:10px">0</text>
<text x="20.885" y="-117.42" transform="scale(1, -1)"
	style="font-family:Liberation Serif;font-variant:normal;font-weight:normal;font-style:normal;font-size:10px">80</text>
<text x="15.885" y="-205.17" transform="scale(1, -1)"
	style="font-family:Liberation Serif;font-variant:normal;font-weight:normal;font-style:normal;font-size:10px">160</text>
<path d="M33.385,31.959L41.385,31.959" style="fill:none;stroke:#000000;stroke-width:0.5" />
<path d="M33.385,119.71L41.385,119.71" style="fill:none;stroke:#000000;stroke-width:0.5" />
<path d="M33.385,207.45L41.385,207.45" style="fill:none;stroke:#000000;stroke-width:0.5" />
<path d="M37.385,75.832L41.385,75.832" style="fill:none;stroke:#000000;stroke-width:0.5" />
<path d="M37.385,163.58L41.385,163.58" style="fill:none;stroke:#000000;stroke-width:0.5" />
<path d="M41.385,31.959L41.385,221.71" style="fill:none;stroke:#000000;stroke-width:0.5" />
<path d="M49.354,31.959L49.354,40.734L79.354,40.734L79.354,31.959Z" style="fill:#F15A60" />
<path d="M229.68,31.959L229.68,46.218L259.68,46.218L259.68,31.959Z" style="fill:#F15A60" />
<path d="M410,31.959L410,119.71L440,119.71L440,31.959Z" style="fill:#F15A60" />
<path d="M79.354,31.959L79.354,48.411L109.35,48.411L109.35,31.959Z" style="fill:#7AC36A" />
<path d="M259.68,31.959L259.68,59.38L289.68,59.38L289.68,31.959Z" style="fill:#7AC36A" />
<path d="M440,31.959L440,221.71L470,221.71L470,31.959Z" style="fill:#7AC36A" />
<path d="M450,208.93L450,219.12L470,219.12L470,208.93Z" style="fill:#F15A60" />
<text x="420.33" y="-211.54" transform="scale(1, -1)"
	style="font-family:Liberation Serif;font-variant:normal;font-weight:normal;font-style:normal;font-size:12px">digits</text>
<path d="M450,198.75L450,208.93L470,208.93L470,198.75Z" style="fill:#7AC36A" />
<text x="420.34" y="-201.35" transform="scale(1, -1)"
	style="font-family:Liberation Serif;font-variant:normal;font-weight:normal;font-style:normal;font-size:12px">twain</text>
</g>
</svg>
