<?xml version="1.0"?>
<!-- Generated by SVGo and Plotinum VG -->
<svg width="470pt" height="235pt" viewBox="0 0 470 235"
	xmlns="http://www.w3.org/2000/svg"
	xmlns:xlink="http://www.w3.org/1999/xlink">
<g transform="scale(1, -1) translate(0, -235)">
<path d="M0,0L470,0L470,235L0,235Z" style="fill:#FFFFFF" />
<text x="162.65" y="-225.61" transform="scale(1, -1)"
	style="font-family:Liberation Serif;font-variant:normal;font-weight:normal;font-style:normal;font-size:12px">BenchmarkDecode/level=best</text>
<text x="246.74" y="-3.9023" transform="scale(1, -1)"
	style="font-family:Liberation Serif;font-variant:normal;font-weight:normal;font-style:normal;font-size:12px">size</text>
<text x="42.135" y="-16.541" transform="scale(1, -1)"
	style="font-family:Liberation Serif;font-variant:normal;font-weight:normal;font-style:normal;font-size:10px">1e4</text>
<text x="248.85" y="-16.541" transform="scale(1, -1)"
	style="font-family:Liberation Serif;font-variant:normal;font-weight:normal;font-style:normal;font-size:10px">1e5</text>
<text x="455.56" y="-16.541" transform="scale(1, -1)"
	style="font-family:Liberation Serif;font-variant:normal;font-weight:normal;font-style:normal;font-size:10px">1e6</text>
<g transform="rotate(90)">
<text x="105.17" y="9.3867" transform="scale(1, -1)"
	style="font-family:Liberation Serif;font-variant:normal;font-weight:normal;font-style:normal;font-size:12px">allocs/op</text>
</g>
<text x="20.885" y="-54.974" transform="scale(1, -1)"
	style="font-family:Liberation Serif;font-variant:normal;font-weight:normal;font-style:normal;font-size:10px">30</text>
<text x="20.885" y="-123.97" transform="scale(1, -1)"
	style="font-family:Liberation Serif;font-variant:normal;font-weight:normal;font-style:normal;font-size:10px">90</text>
<text x="15.885" y="-192.98" transform="scale(1, -1)"
	style="font-family:Liberation Serif;font-variant:normal;font-weight:normal;font-style:normal;font-size:10px">150</text>
<path d="M33.385,57.259L41.385,57.259" style="fill:none;stroke:#000000;stroke-width:0.5" />
<path d="M33.385,126.26L41.385,126.26" style="fill:none;stroke:#000000;stroke-width:0.5" />
<path d="M33.385,195.26L41.385,195.26" style="fill:none;stroke:#000000;stroke-width:0.5" />
<path d="M37.385,91.76L41.385,91.76" style="fill:none;stroke:#000000;stroke-width:0.5" />
<path d="M37.385,160.76L41.385,160.76" style="fill:none;stroke:#000000;stroke-width:0.5" />
<path d="M41.385,31.959L41.385,221.71" style="fill:none;stroke:#000000;stroke-width:0.5" />
<path d="M49.354,31.959L256.07,37.709L462.78,114.76" style="fill:none;stroke:#F15A60" />
<path d="M49.354,40.009L256.07,51.509L462.78,221.71" style="fill:none;stroke:#7AC36A" />
<path d="M450,214.02L470,214.02" style="fill:none;stroke:#F15A60" />
<text x="420.33" y="-211.54" transform="scale(1, -1)"
	style="font-family:Liberation Serif;font-variant:normal;font-weight:normal;font-style:normal;font-size:12px">digits</text>
<path d="M450,203.84L470,203.84" style="fill:none;stroke:#7AC36A" />
<text x="420.34" y="-201.35" transform="scale(1, -1)"
	style="font-family:Liberation Serif;font-variant:normal;font-weight:normal;font-style:normal;font-size:12px">twain</text>
</g>
</svg>
