<?xml version="1.0"?>
<!-- Generated by SVGo and Plotinum VG -->
<svg width="590pt" height="295pt" viewBox="0 0 590 295"
	xmlns="http://www.w3.org/2000/svg"
	xmlns:xlink="http://www.w3.org/1999/xlink">
<g transform="scale(1, -1) translate(0, -295)">
<path d="M0,0L590,0L590,295L0,295Z" style="fill:#FFFFFF" />
<text x="162.76" y="-285.61" transform="scale(1, -1)"
	style="font-family:Liberation Serif;font-variant:normal;font-weight:normal;font-style:normal;font-size:12px">BenchmarkCorrectness/size=1000000/quant=0.000000</text>
<text x="303.88" y="-3.9023" transform="scale(1, -1)"
	style="font-family:Liberation Serif;font-variant:normal;font-weight:normal;font-style:normal;font-size:12px">source</text>
<text x="54.635" y="-16.541" transform="scale(1, -1)"
	style="font-family:Liberation Serif;font-variant:normal;font-weight:normal;font-style:normal;font-size:10px">linear</text>
<text x="183.89" y="-16.541" transform="scale(1, -1)"
	style="font-family:Liberation Serif;font-variant:normal;font-weight:normal;font-style:normal;font-size:10px">rand</text>
<text x="298.16" y="-16.541" transform="scale(1, -1)"
	style="font-family:Liberation Serif;font-variant:normal;font-weight:normal;font-style:normal;font-size:10px">alternating</text>
<text x="432.14" y="-16.541" transform="scale(1, -1)"
	style="font-family:Liberation Serif;font-variant:normal;font-weight:normal;font-style:normal;font-size:10px">normal</text>
<text x="556.12" y="-16.541" transform="scale(1, -1)"
	style="font-family:Liberation Serif;font-variant:normal;font-weight:normal;font-style:normal;font-size:10px">tailspike</text>
<g transform="rotate(90)">
<text x="135.18" y="9.3867" transform="scale(1, -1)"
	style="font-family:Liberation Serif;font-variant:normal;font-weight:normal;font-style:normal;font-size:12px">%correct</text>
</g>
<text x="20.885" y="-29.674" transform="scale(1, -1)"
	style="font-family:Liberation Serif;font-variant:normal;font-weight:normal;font-style:normal;font-size:10px">50.00</text>
<text x="20.885" y="-149.75" transform="scale(1, -1)"
	style="font-family:Liberation Serif;font-variant:normal;font-weight:normal;font-style:normal;font-size:10px">75.00</text>
<text x="15.885" y="-269.82" transform="scale(1, -1)"
	style="font-family:Liberation Serif;font-variant:normal;font-weight:normal;font-style:normal;font-size:10px">100.00</text>
<path d="M45.885,31.959L53.885,31.959" style="fill:none;stroke:#000000;stroke-width:0.5" />
<path d="M45.885,152.03L53.885,152.03" style="fill:none;stroke:#000000;stroke-width:0.5" />
<path d="M45.885,272.11L53.885,272.11" style="fill:none;stroke:#000000;stroke-width:0.5" />
<path d="M49.885,55.974L53.885,55.974" style="fill:none;stroke:#000000;stroke-width:0.5" />
<path d="M49.885,79.988L53.885,79.988" style="fill:none;stroke:#000000;stroke-width:0.5" />
<path d="M49.885,104L53.885,104" style="fill:none;stroke:#000000;stroke-width:0.5" />
<path d="M49.885,128.02L53.885,128.02" style="fill:none;stroke:#000000;stroke-width:0.5" />
<path d="M49.885,176.05L53.885,176.05" style="fill:none;stroke:#000000;stroke-width:0.5" />
<path d="M49.885,200.06L53.885,200.06" style="fill:none;stroke:#000000;stroke-width:0.5" />
<path d="M49.885,224.08L53.885,224.08" style="fill:none;stroke:#000000;stroke-width:0.5" />
<path d="M49.885,248.09L53.885,248.09" style="fill:none;stroke:#000000;stroke-width:0.5" />
<path d="M53.885,31.959L53.885,281.71" style="fill:none;stroke:#000000;stroke-width:0.5" />
<path d="M66.017,272.11L192.78,272.11L319.54,272.11L446.3,272.11L573.06,272.11" style="fill:none;stroke:#F15A60" />
<path d="M66.017,31.959L192.78,254.81L319.54,272.11L446.3,281.71L573.06,244.25" style="fill:none;stroke:#7AC36A" />
<path d="M570,274.02L590,274.02" style="fill:none;stroke:#F15A60" />
<text x="547.01" y="-271.54" transform="scale(1, -1)"
	style="font-family:Liberation Serif;font-variant:normal;font-weight:normal;font-style:normal;font-size:12px">caio</text>
<path d="M570,263.84L590,263.84" style="fill:none;stroke:#7AC36A" />
<text x="517.68" y="-261.35" transform="scale(1, -1)"
	style="font-family:Liberation Serif;font-variant:normal;font-weight:normal;font-style:normal;font-size:12px">segmentio</text>
</g>
</svg>
