<?xml version="1.0"?>
<!-- Generated by SVGo and Plotinum VG -->
<svg width="1190pt" height="595pt" viewBox="0 0 1190 595"
	xmlns="http://www.w3.org/2000/svg"
	xmlns:xlink="http://www.w3.org/1999/xlink">
<g transform="scale(1, -1) translate(0, -595)">
<path d="M0,0L1190,0L1190,595L0,595Z" style="fill:#FFFFFF" />
<text x="459.6" y="-585.61" transform="scale(1, -1)"
	style="font-family:Liberation Serif;font-variant:normal;font-weight:normal;font-style:normal;font-size:12px">BenchmarkCorrectness/size=1000000/digest=segmentio</text>
<text x="612.11" y="-3.9023" transform="scale(1, -1)"
	style="font-family:Liberation Serif;font-variant:normal;font-weight:normal;font-style:normal;font-size:12px">quant</text>
<text x="117.13" y="-16.541" transform="scale(1, -1)"
	style="font-family:Liberation Serif;font-variant:normal;font-weight:normal;font-style:normal;font-size:10px">0.000000</text>
<text x="312.96" y="-16.541" transform="scale(1, -1)"
	style="font-family:Liberation Serif;font-variant:normal;font-weight:normal;font-style:normal;font-size:10px">0.100000</text>
<text x="508.78" y="-16.541" transform="scale(1, -1)"
	style="font-family:Liberation Serif;font-variant:normal;font-weight:normal;font-style:normal;font-size:10px">0.500000</text>
<text x="704.6" y="-16.541" transform="scale(1, -1)"
	style="font-family:Liberation Serif;font-variant:normal;font-weight:normal;font-style:normal;font-size:10px">0.900000</text>
<text x="900.43" y="-16.541" transform="scale(1, -1)"
	style="font-family:Liberation Serif;font-variant:normal;font-weight:normal;font-style:normal;font-size:10px">0.990000</text>
<text x="1096.2" y="-16.541" transform="scale(1, -1)"
	style="font-family:Liberation Serif;font-variant:normal;font-weight:normal;font-style:normal;font-size:10px">0.999000</text>
<g transform="rotate(90)">
<text x="285.18" y="9.3867" transform="scale(1, -1)"
	style="font-family:Liberation Serif;font-variant:normal;font-weight:normal;font-style:normal;font-size:12px">%correct</text>
</g>
<text x="25.885" y="-29.674" transform="scale(1, -1)"
	style="font-family:Liberation Serif;font-variant:normal;font-weight:normal;font-style:normal;font-size:10px">0</text>
<text x="20.885" y="-299.16" transform="scale(1, -1)"
	style="font-family:Liberation Serif;font-variant:normal;font-weight:normal;font-style:normal;font-size:10px">50</text>
<text x="15.885" y="-568.65" transform="scale(1, -1)"
	style="font-family:Liberation Serif;font-variant:normal;font-weight:normal;font-style:normal;font-size:10px">100</text>
<path d="M33.385,31.959L41.385,31.959" style="fill:none;stroke:#000000;stroke-width:0.5" />
<path d="M33.385,301.45L41.385,301.45" style="fill:none;stroke:#000000;stroke-width:0.5" />
<path d="M33.385,570.93L41.385,570.93" style="fill:none;stroke:#000000;stroke-width:0.5" />
<path d="M37.385,85.856L41.385,85.856" style="fill:none;stroke:#000000;stroke-width:0.5" />
<path d="M37.385,139.75L41.385,139.75" style="fill:none;stroke:#000000;stroke-width:0.5" />
<path d="M37.385,193.65L41.385,193.65" style="fill:none;stroke:#000000;stroke-width:0.5" />
<path d="M37.385,247.55L41.385,247.55" style="fill:none;stroke:#000000;stroke-width:0.5" />
<path d="M37.385,355.34L41.385,355.34" style="fill:none;stroke:#000000;stroke-width:0.5" />
<path d="M37.385,409.24L41.385,409.24" style="fill:none;stroke:#000000;stroke-width:0.5" />
<path d="M37.385,463.14L41.385,463.14" style="fill:none;stroke:#000000;stroke-width:0.5" />
<path d="M37.385,517.03L41.385,517.03" style="fill:none;stroke:#000000;stroke-width:0.5" />
<path d="M41.385,31.959L41.385,581.71" style="fill:none;stroke:#000000;stroke-width:0.5" />
<path d="M60.885,31.959L60.885,301.45L90.885,301.45L90.885,31.959Z" style="fill:#F15A60" />
<path d="M256.71,31.959L256.71,570.93L286.71,570.93L286.71,31.959Z" style="fill:#F15A60" />
<path d="M452.53,31.959L452.53,570.93L482.53,570.93L482.53,31.959Z" style="fill:#F15A60" />
<path d="M648.35,31.959L648.35,570.93L678.35,570.93L678.35,31.959Z" style="fill:#F15A60" />
<path d="M844.18,31.959L844.18,570.93L874.18,570.93L874.18,31.959Z" style="fill:#F15A60" />
<path d="M1040,31.959L1040,570.93L1070,570.93L1070,31.959Z" style="fill:#F15A60" />
<path d="M90.885,31.959L90.885,551.53L120.88,551.53L120.88,31.959Z" style="fill:#7AC36A" />
<path d="M286.71,31.959L286.71,566.62L316.71,566.62L316.71,31.959Z" style="fill:#7AC36A" />
<path d="M482.53,31.959L482.53,567.16L512.53,567.16L512.53,31.959Z" style="fill:#7AC36A" />
<path d="M678.35,31.959L678.35,570.39L708.35,570.39L708.35,31.959Z" style="fill:#7AC36A" />
<path d="M874.18,31.959L874.18,570.93L904.18,570.93L904.18,31.959Z" style="fill:#7AC36A" />
<path d="M1070,31.959L1070,570.93L1100,570.93L1100,31.959Z" style="fill:#7AC36A" />
<path d="M120.88,31.959L120.88,570.93L150.88,570.93L150.88,31.959Z" style="fill:#5A9BD4" />
<path d="M316.71,31.959L316.71,570.93L346.71,570.93L346.71,31.959Z" style="fill:#5A9BD4" />
<path d="M512.53,31.959L512.53,570.93L542.53,570.93L542.53,31.959Z" style="fill:#5A9BD4" />
<path d="M708.35,31.959L708.35,570.93L738.35,570.93L738.35,31.959Z" style="fill:#5A9BD4" />
<path d="M904.18,31.959L904.18,570.93L934.18,570.93L934.18,31.959Z" style="fill:#5A9BD4" />
<path d="M1100,31.959L1100,570.93L1130,570.93L1130,31.959Z" style="fill:#5A9BD4" />
<path d="M150.88,31.959L150.88,581.71L180.88,581.71L180.88,31.959Z" style="fill:#FAA75B" />
<path d="M346.71,31.959L346.71,570.93L376.71,570.93L376.71,31.959Z" style="fill:#FAA75B" />
<path d="M542.53,31.959L542.53,45.379L572.53,45.379L572.53,31.959Z" style="fill:#FAA75B" />
<path d="M738.35,31.959L738.35,569.31L768.35,569.31L768.35,31.959Z" style="fill:#FAA75B" />
<path d="M934.18,31.959L934.18,567.7L964.18,567.7L964.18,31.959Z" style="fill:#FAA75B" />
<path d="M1130,31.959L1130,570.39L1160,570.39L1160,31.959Z" style="fill:#FAA75B" />
<path d="M180.88,31.959L180.88,539.67L210.88,539.67L210.88,31.959Z" style="fill:#9E67AB" />
<path d="M376.71,31.959L376.71,568.78L406.71,568.78L406.71,31.959Z" style="fill:#9E67AB" />
<path d="M572.53,31.959L572.53,569.85L602.53,569.85L602.53,31.959Z" style="fill:#9E67AB" />
<path d="M768.35,31.959L768.35,249.7L798.35,249.7L798.35,31.959Z" style="fill:#9E67AB" />
<path d="M964.18,31.959L964.18,570.93L994.18,570.93L994.18,31.959Z" style="fill:#9E67AB" />
<path d="M1160,31.959L1160,570.93L1190,570.93L1190,31.959Z" style="fill:#9E67AB" />
<path d="M1170,568.93L1170,579.12L1190,579.12L1190,568.93Z" style="fill:#F15A60" />
<text x="1139.7" y="-571.54" transform="scale(1, -1)"
	style="font-family:Liberation Serif;font-variant:normal;font-weight:normal;font-style:normal;font-size:12px">linear</text>
<path d="M1170,558.75L1170,568.93L1190,568.93L1190,558.75Z" style="fill:#7AC36A" />
<text x="1145.7" y="-561.35" transform="scale(1, -1)"
	style="font-family:Liberation Serif;font-variant:normal;font-weight:normal;font-style:normal;font-size:12px">rand</text>
<path d="M1170,548.56L1170,558.75L1190,558.75L1190,548.56Z" style="fill:#5A9BD4" />
<text x="1115.7" y="-551.17" transform="scale(1, -1)"
	style="font-family:Liberation Serif;font-variant:normal;font-weight:normal;font-style:normal;font-size:12px">alternating</text>
<path d="M1170,538.38L1170,548.56L1190,548.56L1190,538.38Z" style="fill:#FAA75B" />
<text x="1133" y="-540.99" transform="scale(1, -1)"
	style="font-family:Liberation Serif;font-variant:normal;font-weight:normal;font-style:normal;font-size:12px">normal</text>
<path d="M1170,528.2L1170,538.38L1190,538.38L1190,528.2Z" style="fill:#9E67AB" />
<text x="1126.3" y="-530.8" transform="scale(1, -1)"
	style="font-family:Liberation Serif;font-variant:normal;font-weight:normal;font-style:normal;font-size:12px">tailspike</text>
</g>
</svg>
