<?xml version="1.0"?>
<!-- Generated by SVGo and Plotinum VG -->
<svg width="2090pt" height="1045pt" viewBox="0 0 2090 1045"
	xmlns="http://www.w3.org/2000/svg"
	xmlns:xlink="http://www.w3.org/1999/xlink">
<g transform="scale(1, -1) translate(0, -1045)">
<path d="M0,0L2090,0L2090,1045L0,1045Z" style="fill:#FFFFFF" />
<text x="953.64" y="-1035.6" transform="scale(1, -1)"
	style="font-family:Liberation Serif;font-variant:normal;font-weight:normal;font-style:normal;font-size:12px">BenchmarkCorrectness/size=1000000</text>
<text x="1077.1" y="-3.9023" transform="scale(1, -1)"
	style="font-family:Liberation Serif;font-variant:normal;font-weight:normal;font-style:normal;font-size:12px">quant</text>
<text x="207.13" y="-16.541" transform="scale(1, -1)"
	style="font-family:Liberation Serif;font-variant:normal;font-weight:normal;font-style:normal;font-size:10px">0.000000</text>
<text x="552.96" y="-16.541" transform="scale(1, -1)"
	style="font-family:Liberation Serif;font-variant:normal;font-weight:normal;font-style:normal;font-size:10px">0.100000</text>
<text x="898.78" y="-16.541" transform="scale(1, -1)"
	style="font-family:Liberation Serif;font-variant:normal;font-weight:normal;font-style:normal;font-size:10px">0.500000</text>
<text x="1244.6" y="-16.541" transform="scale(1, -1)"
	style="font-family:Liberation Serif;font-variant:normal;font-weight:normal;font-style:normal;font-size:10px">0.900000</text>
<text x="1590.4" y="-16.541" transform="scale(1, -1)"
	style="font-family:Liberation Serif;font-variant:normal;font-weight:normal;font-style:normal;font-size:10px">0.990000</text>
<text x="1936.2" y="-16.541" transform="scale(1, -1)"
	style="font-family:Liberation Serif;font-variant:normal;font-weight:normal;font-style:normal;font-size:10px">0.999000</text>
<g transform="rotate(90)">
<text x="510.18" y="9.3867" transform="scale(1, -1)"
	style="font-family:Liberation Serif;font-variant:normal;font-weight:normal;font-style:normal;font-size:12px">%correct</text>
</g>
<text x="25.885" y="-29.674" transform="scale(1, -1)"
	style="font-family:Liberation Serif;font-variant:normal;font-weight:normal;font-style:normal;font-size:10px">0</text>
<text x="20.885" y="-519.75" transform="scale(1, -1)"
	style="font-family:Liberation Serif;font-variant:normal;font-weight:normal;font-style:normal;font-size:10px">50</text>
<text x="15.885" y="-1009.8" transform="scale(1, -1)"
	style="font-family:Liberation Serif;font-variant:normal;font-weight:normal;font-style:normal;font-size:10px">100</text>
<path d="M33.385,31.959L41.385,31.959" style="fill:none;stroke:#000000;stroke-width:0.5" />
<path d="M33.385,522.03L41.385,522.03" style="fill:none;stroke:#000000;stroke-width:0.5" />
<path d="M33.385,1012.1L41.385,1012.1" style="fill:none;stroke:#000000;stroke-width:0.5" />
<path d="M37.385,129.97L41.385,129.97" style="fill:none;stroke:#000000;stroke-width:0.5" />
<path d="M37.385,227.99L41.385,227.99" style="fill:none;stroke:#000000;stroke-width:0.5" />
<path d="M37.385,326L41.385,326" style="fill:none;stroke:#000000;stroke-width:0.5" />
<path d="M37.385,424.02L41.385,424.02" style="fill:none;stroke:#000000;stroke-width:0.5" />
<path d="M37.385,620.05L41.385,620.05" style="fill:none;stroke:#000000;stroke-width:0.5" />
<path d="M37.385,718.06L41.385,718.06" style="fill:none;stroke:#000000;stroke-width:0.5" />
<path d="M37.385,816.08L41.385,816.08" style="fill:none;stroke:#000000;stroke-width:0.5" />
<path d="M37.385,914.09L41.385,914.09" style="fill:none;stroke:#000000;stroke-width:0.5" />
<path d="M41.385,31.959L41.385,1031.7" style="fill:none;stroke:#000000;stroke-width:0.5" />
<path d="M60.885,31.959L60.885,1012.1L90.885,1012.1L90.885,31.959Z" style="fill:#F15A60" />
<path d="M406.71,31.959L406.71,1012.1L436.71,1012.1L436.71,31.959Z" style="fill:#F15A60" />
<path d="M752.53,31.959L752.53,1012.1L782.53,1012.1L782.53,31.959Z" style="fill:#F15A60" />
<path d="M1098.4,31.959L1098.4,1012.1L1128.4,1012.1L1128.4,31.959Z" style="fill:#F15A60" />
<path d="M1444.2,31.959L1444.2,1012.1L1474.2,1012.1L1474.2,31.959Z" style="fill:#F15A60" />
<path d="M1790,31.959L1790,1012.1L1820,1012.1L1820,31.959Z" style="fill:#F15A60" />
<path d="M90.885,31.959L90.885,522.03L120.88,522.03L120.88,31.959Z" style="fill:#7AC36A" />
<path d="M436.71,31.959L436.71,1012.1L466.71,1012.1L466.71,31.959Z" style="fill:#7AC36A" />
<path d="M782.53,31.959L782.53,1012.1L812.53,1012.1L812.53,31.959Z" style="fill:#7AC36A" />
<path d="M1128.4,31.959L1128.4,1012.1L1158.4,1012.1L1158.4,31.959Z" style="fill:#7AC36A" />
<path d="M1474.2,31.959L1474.2,1012.1L1504.2,1012.1L1504.2,31.959Z" style="fill:#7AC36A" />
<path d="M1820,31.959L1820,1012.1L1850,1012.1L1850,31.959Z" style="fill:#7AC36A" />
<path d="M120.88,31.959L120.88,1012.1L150.88,1012.1L150.88,31.959Z" style="fill:#5A9BD4" />
<path d="M466.71,31.959L466.71,1012.1L496.71,1012.1L496.71,31.959Z" style="fill:#5A9BD4" />
<path d="M812.53,31.959L812.53,1012.1L842.53,1012.1L842.53,31.959Z" style="fill:#5A9BD4" />
<path d="M1158.4,31.959L1158.4,1012.1L1188.4,1012.1L1188.4,31.959Z" style="fill:#5A9BD4" />
<path d="M1504.2,31.959L1504.2,1012.1L1534.2,1012.1L1534.2,31.959Z" style="fill:#5A9BD4" />
<path d="M1850,31.959L1850,1012.1L1880,1012.1L1880,31.959Z" style="fill:#5A9BD4" />
<path d="M150.88,31.959L150.88,976.82L180.88,976.82L180.88,31.959Z" style="fill:#FAA75B" />
<path d="M496.71,31.959L496.71,1004.3L526.71,1004.3L526.71,31.959Z" style="fill:#FAA75B" />
<path d="M842.53,31.959L842.53,1005.2L872.53,1005.2L872.53,31.959Z" style="fill:#FAA75B" />
<path d="M1188.4,31.959L1188.4,1011.1L1218.4,1011.1L1218.4,31.959Z" style="fill:#FAA75B" />
<path d="M1534.2,31.959L1534.2,1012.1L1564.2,1012.1L1564.2,31.959Z" style="fill:#FAA75B" />
<path d="M1880,31.959L1880,1012.1L1910,1012.1L1910,31.959Z" style="fill:#FAA75B" />
<path d="M180.88,31.959L180.88,1012.1L210.88,1012.1L210.88,31.959Z" style="fill:#9E67AB" />
<path d="M526.71,31.959L526.71,1012.1L556.71,1012.1L556.71,31.959Z" style="fill:#9E67AB" />
<path d="M872.53,31.959L872.53,1012.1L902.53,1012.1L902.53,31.959Z" style="fill:#9E67AB" />
<path d="M1218.4,31.959L1218.4,1012.1L1248.4,1012.1L1248.4,31.959Z" style="fill:#9E67AB" />
<path d="M1564.2,31.959L1564.2,1012.1L1594.2,1012.1L1594.2,31.959Z" style="fill:#9E67AB" />
<path d="M1910,31.959L1910,1012.1L1940,1012.1L1940,31.959Z" style="fill:#9E67AB" />
<path d="M210.88,31.959L210.88,1012.1L240.88,1012.1L240.88,31.959Z" style="fill:#CE7058" />
<path d="M556.71,31.959L556.71,1012.1L586.71,1012.1L586.71,31.959Z" style="fill:#CE7058" />
<path d="M902.53,31.959L902.53,1012.1L932.53,1012.1L932.53,31.959Z" style="fill:#CE7058" />
<path d="M1248.4,31.959L1248.4,1012.1L1278.4,1012.1L1278.4,31.959Z" style="fill:#CE7058" />
<path d="M1594.2,31.959L1594.2,1012.1L1624.2,1012.1L1624.2,31.959Z" style="fill:#CE7058" />
<path d="M1940,31.959L1940,1012.1L1970,1012.1L1970,31.959Z" style="fill:#CE7058" />
<path d="M240.88,31.959L240.88,1012.1L270.88,1012.1L270.88,31.959Z" style="fill:#D77FB4" />
<path d="M586.71,31.959L586.71,1012.1L616.71,1012.1L616.71,31.959Z" style="fill:#D77FB4" />
<path d="M932.53,31.959L932.53,966.04L962.53,966.04L962.53,31.959Z" style="fill:#D77FB4" />
<path d="M1278.4,31.959L1278.4,1012.1L1308.4,1012.1L1308.4,31.959Z" style="fill:#D77FB4" />
<path d="M1624.2,31.959L1624.2,1012.1L1654.2,1012.1L1654.2,31.959Z" style="fill:#D77FB4" />
<path d="M1970,31.959L1970,1012.1L2000,1012.1L2000,31.959Z" style="fill:#D77FB4" />
<path d="M270.88,31.959L270.88,1031.7L300.88,1031.7L300.88,31.959Z" style="fill:#F15A60" />
<path d="M616.71,31.959L616.71,1012.1L646.71,1012.1L646.71,31.959Z" style="fill:#F15A60" />
<path d="M962.53,31.959L962.53,56.365L992.53,56.365L992.53,31.959Z" style="fill:#F15A60" />
<path d="M1308.4,31.959L1308.4,1009.2L1338.4,1009.2L1338.4,31.959Z" style="fill:#F15A60" />
<path d="M1654.2,31.959L1654.2,1006.2L1684.2,1006.2L1684.2,31.959Z" style="fill:#F15A60" />
<path d="M2000,31.959L2000,1011.1L2030,1011.1L2030,31.959Z" style="fill:#F15A60" />
<path d="M300.88,31.959L300.88,1012.1L330.88,1012.1L330.88,31.959Z" style="fill:#7AC36A" />
<path d="M646.71,31.959L646.71,1012.1L676.71,1012.1L676.71,31.959Z" style="fill:#7AC36A" />
<path d="M992.53,31.959L992.53,1012.1L1022.5,1012.1L1022.5,31.959Z" style="fill:#7AC36A" />
<path d="M1338.4,31.959L1338.4,598.49L1368.4,598.49L1368.4,31.959Z" style="fill:#7AC36A" />
<path d="M1684.2,31.959L1684.2,1012.1L1714.2,1012.1L1714.2,31.959Z" style="fill:#7AC36A" />
<path d="M2030,31.959L2030,1012.1L2060,1012.1L2060,31.959Z" style="fill:#7AC36A" />
<path d="M330.88,31.959L330.88,955.26L360.88,955.26L360.88,31.959Z" style="fill:#5A9BD4" />
<path d="M676.71,31.959L676.71,1008.2L706.71,1008.2L706.71,31.959Z" style="fill:#5A9BD4" />
<path d="M1022.5,31.959L1022.5,1010.1L1052.5,1010.1L1052.5,31.959Z" style="fill:#5A9BD4" />
<path d="M1368.4,31.959L1368.4,427.94L1398.4,427.94L1398.4,31.959Z" style="fill:#5A9BD4" />
<path d="M1714.2,31.959L1714.2,1012.1L1744.2,1012.1L1744.2,31.959Z" style="fill:#5A9BD4" />
<path d="M2060,31.959L2060,1012.1L2090,1012.1L2090,31.959Z" style="fill:#5A9BD4" />
<path d="M2070,1018.9L2070,1029.1L2090,1029.1L2090,1018.9Z" style="fill:#F15A60" />
<text x="1935.7" y="-1021.5" transform="scale(1, -1)"
	style="font-family:Liberation Serif;font-variant:normal;font-weight:normal;font-style:normal;font-size:12px">[source=linear,digest=caio]</text>
<path d="M2070,1008.7L2070,1018.9L2090,1018.9L2090,1008.7Z" style="fill:#7AC36A" />
<text x="1906.3" y="-1011.4" transform="scale(1, -1)"
	style="font-family:Liberation Serif;font-variant:normal;font-weight:normal;font-style:normal;font-size:12px">[source=linear,digest=segmentio]</text>
<path d="M2070,998.56L2070,1008.7L2090,1008.7L2090,998.56Z" style="fill:#5A9BD4" />
<text x="1941.2" y="-1001.2" transform="scale(1, -1)"
	style="font-family:Liberation Serif;font-variant:normal;font-weight:normal;font-style:normal;font-size:12px">[source=rand,digest=caio]</text>
<path d="M2070,988.38L2070,998.56L2090,998.56L2090,988.38Z" style="fill:#FAA75B" />
<text x="1911.8" y="-990.99" transform="scale(1, -1)"
	style="font-family:Liberation Serif;font-variant:normal;font-weight:normal;font-style:normal;font-size:12px">[source=rand,digest=segmentio]</text>
<path d="M2070,978.2L2070,988.38L2090,988.38L2090,978.2Z" style="fill:#9E67AB" />
<text x="1911.2" y="-980.8" transform="scale(1, -1)"
	style="font-family:Liberation Serif;font-variant:normal;font-weight:normal;font-style:normal;font-size:12px">[source=alternating,digest=caio]</text>
<path d="M2070,968.01L2070,978.2L2090,978.2L2090,968.01Z" style="fill:#CE7058" />
<text x="1881.9" y="-970.62" transform="scale(1, -1)"
	style="font-family:Liberation Serif;font-variant:normal;font-weight:normal;font-style:normal;font-size:12px">[source=alternating,digest=segmentio]</text>
<path d="M2070,957.83L2070,968.01L2090,968.01L2090,957.83Z" style="fill:#D77FB4" />
<text x="1928.5" y="-960.43" transform="scale(1, -1)"
	style="font-family:Liberation Serif;font-variant:normal;font-weight:normal;font-style:normal;font-size:12px">[source=normal,digest=caio]</text>
<path d="M2070,947.65L2070,957.83L2090,957.83L2090,947.65Z" style="fill:#F15A60" />
<text x="1899.2" y="-950.25" transform="scale(1, -1)"
	style="font-family:Liberation Serif;font-variant:normal;font-weight:normal;font-style:normal;font-size:12px">[source=normal,digest=segmentio]</text>
<path d="M2070,937.46L2070,947.65L2090,947.65L2090,937.46Z" style="fill:#7AC36A" />
<text x="1921.8" y="-940.07" transform="scale(1, -1)"
	style="font-family:Liberation Serif;font-variant:normal;font-weight:normal;font-style:normal;font-size:12px">[source=tailspike,digest=caio]</text>
<path d="M2070,927.28L2070,937.46L2090,937.46L2090,927.28Z" style="fill:#5A9BD4" />
<text x="1892.5" y="-929.88" transform="scale(1, -1)"
	style="font-family:Liberation Serif;font-variant:normal;font-weight:normal;font-style:normal;font-size:12px">[source=tailspike,digest=segmentio]</text>
</g>
</svg>
